<svg xmlns="http://www.w3.org/2000/svg" width="140" height="17" viewBox="0 0 140 17" style="overflow: hidden"><g fill="#EE7856" fill-rule="evenodd"><path d="M0 1.397h3.893c.732 0 1.46.042 2.184.124a6.074 6.074 0 0 1 1.948.539c.573.277 1.038.68 1.397 1.213.359.53.539 1.253.539 2.165 0 1.077-.337 1.947-1.012 2.61-.673.663-1.605 1.084-2.796 1.263l4.325 6.755H8.26l-4.13-6.589H1.807v6.589H0V1.397zM1.807 7.86H3.42c.502 0 1.021-.013 1.559-.04a5.553 5.553 0 0 0 1.487-.268c.45-.153.822-.392 1.117-.717.294-.323.442-.79.442-1.397 0-.525-.108-.947-.324-1.265a2.162 2.162 0 0 0-.849-.735 3.755 3.755 0 0 0-1.183-.342 10.498 10.498 0 0 0-1.324-.082H1.807V7.86zM20.595 14c-.593.768-1.242 1.303-1.948 1.608-.704.306-1.523.458-2.455.458-.777 0-1.474-.139-2.095-.415a4.69 4.69 0 0 1-1.577-1.118 4.932 4.932 0 0 1-.995-1.66 5.925 5.925 0 0 1-.349-2.044c0-.768.128-1.475.38-2.121a4.886 4.886 0 0 1 1.06-1.66c.451-.461.988-.82 1.608-1.076a5.309 5.309 0 0 1 2.032-.384c.691 0 1.326.118 1.905.352a4.15 4.15 0 0 1 1.493 1.023c.416.445.736.992.962 1.64.226.644.34 1.38.34 2.203v.533h-8.001c.028.425.13.834.306 1.224.176.391.405.731.688 1.022.28.291.613.522.995.693.38.17.796.255 1.248.255.721 0 1.326-.128 1.82-.383.495-.256.94-.632 1.334-1.129l1.249.98zm-1.418-4.067c-.029-.851-.303-1.532-.825-2.044-.522-.513-1.242-.767-2.16-.767-.918 0-1.657.254-2.222.767-.565.512-.903 1.193-1.015 2.044h6.222zM22.945 13.191c.32.413.67.739 1.052.981.381.242.863.362 1.447.362.25 0 .503-.028.76-.086.257-.057.49-.148.697-.276.209-.129.375-.288.5-.48.124-.192.187-.422.187-.692 0-.27-.06-.49-.177-.66a1.548 1.548 0 0 0-.469-.437 2.63 2.63 0 0 0-.666-.288c-.25-.07-.507-.134-.77-.192a16.513 16.513 0 0 1-1.312-.339 4.247 4.247 0 0 1-1.093-.502 2.345 2.345 0 0 1-.75-.799c-.186-.326-.28-.744-.28-1.256 0-.483.104-.908.311-1.277.209-.37.487-.675.834-.916a3.996 3.996 0 0 1 1.166-.555 4.65 4.65 0 0 1 1.332-.191c.695 0 1.336.142 1.926.424.59.287 1.051.746 1.385 1.387l-1.353.916a2.567 2.567 0 0 0-.823-.864c-.34-.22-.753-.33-1.24-.33-.22 0-.446.03-.675.085a2.06 2.06 0 0 0-.614.256c-.182.114-.33.26-.447.436a1.06 1.06 0 0 0-.179.608c0 .212.066.393.198.543.132.15.313.28.542.393.229.116.493.215.79.3.3.084.608.156.928.212.43.084.839.196 1.228.332.39.133.728.314 1.02.542.291.228.52.51.687.852.167.34.25.76.25 1.257 0 .568-.111 1.05-.333 1.448-.223.396-.518.72-.884.967a3.78 3.78 0 0 1-1.25.544c-.465.114-.942.17-1.426.17-.833 0-1.552-.131-2.156-.394-.603-.262-1.148-.747-1.634-1.458l1.291-1.023M40.425 13.56c0 .436.015.843.045 1.223.03.38.043.727.043 1.038h-1.63c0-.256-.008-.515-.022-.772a14.674 14.674 0 0 1-.022-.795h-.044c-.118.23-.282.454-.497.672a3.59 3.59 0 0 1-.76.581c-.295.17-.625.305-.993.406a4.43 4.43 0 0 1-1.189.153c-.675 0-1.26-.095-1.751-.284-.494-.19-.901-.456-1.225-.795a3.15 3.15 0 0 1-.716-1.233 5.181 5.181 0 0 1-.231-1.579V6.287h1.718v5.726c0 .8.192 1.432.575 1.893.38.463.976.693 1.785.693.559 0 1.038-.087 1.443-.263.404-.178.735-.43.992-.756.258-.325.448-.714.573-1.16.124-.449.186-.945.186-1.489V6.287h1.72v7.273M42.691 8.792c0-.434-.013-.841-.04-1.222a13.96 13.96 0 0 1-.042-1.04h1.532c0 .259.008.518.022.775.015.258.02.523.02.795h.041c.111-.231.267-.455.468-.673.199-.216.438-.41.714-.58.277-.17.587-.305.932-.406a3.865 3.865 0 0 1 1.118-.154c.525 0 .964.066 1.317.193.353.13.644.286.88.47.234.182.418.38.548.59a7.7 7.7 0 0 1 .322.56c.36-.57.772-1.014 1.243-1.334.469-.318 1.077-.48 1.823-.48.69 0 1.27.093 1.74.276.47.182.85.45 1.14.794.29.346.497.768.62 1.264.127.496.188 1.048.188 1.66v5.786h-1.616v-5.704c0-.326-.034-.646-.105-.958a2.184 2.184 0 0 0-.372-.835 1.936 1.936 0 0 0-.725-.592c-.303-.149-.691-.223-1.16-.223-.346 0-.67.067-.973.203-.305.137-.57.327-.799.57a2.67 2.67 0 0 0-.538.888c-.13.345-.196.73-.196 1.15v5.5h-1.616v-5.397c0-1.06-.146-1.81-.436-2.252-.29-.441-.767-.662-1.43-.662-.524 0-.977.088-1.356.264-.381.178-.692.428-.933.754-.24.326-.421.714-.538 1.162a5.843 5.843 0 0 0-.177 1.487v4.645H42.69V8.792M69.49 14c-.593.768-1.242 1.303-1.947 1.608-.706.306-1.525.458-2.455.458-.778 0-1.476-.139-2.096-.415a4.69 4.69 0 0 1-1.578-1.118 4.906 4.906 0 0 1-.994-1.66 5.924 5.924 0 0 1-.349-2.044c0-.768.127-1.475.38-2.121a4.918 4.918 0 0 1 1.059-1.66c.451-.461.989-.82 1.608-1.076a5.312 5.312 0 0 1 2.034-.384c.69 0 1.325.118 1.904.352a4.141 4.141 0 0 1 1.493 1.023c.415.445.736.992.962 1.64.227.644.34 1.38.34 2.203v.533h-8.002c.028.425.13.834.306 1.224.176.391.407.731.688 1.022.282.291.615.522.995.693.38.17.797.255 1.25.255.72 0 1.327-.128 1.82-.383.495-.256.939-.632 1.333-1.129l1.25.98zm-1.418-4.067c-.029-.851-.304-1.532-.825-2.044-.523-.513-1.242-.767-2.159-.767-.918 0-1.659.254-2.224.767-.564.512-.903 1.193-1.015 2.044h6.223zM92.11 11.482c.02 1.527.85 2.36 2.301 2.36 1.1 0 1.846-.397 2.24-1.17l2.718 1.052c-.643 1.468-2.323 2.342-4.75 2.342-3.732 0-5.91-2.203-5.91-5.16 0-2.956 2.3-5.318 5.702-5.318 3.319 0 5.475 2.144 5.475 5.735v.159H92.11zm2.178-3.791c-1.163 0-1.888.615-2.095 1.845h4.146c-.123-1.13-.973-1.845-2.051-1.845zM101.283 5.918h3.353v2.057c.99-1.666 2.171-2.387 3.985-2.387 1.35 0 2.447.454 3.08 1.235.696.864.758 1.977.758 3.44v5.803h-3.667v-5.434c0-1.585-.487-2.326-1.709-2.326-1.645 0-2.194 1.214-2.194 3.498v4.262h-3.606V5.918M115.95 0c1.158 0 2.097.909 2.097 2.074 0 1.168-.96 2.097-2.096 2.097-1.178 0-2.095-.992-2.095-2.097 0-1.123.939-2.074 2.095-2.074zm-1.9 5.405h3.8v10.66h-3.8V5.406zM129.223 10.744c0 1.577-.04 2.825-1.212 3.99-.904.902-2.24 1.332-4.028 1.332-1.786 0-3.1-.43-4.045-1.331-1.133-1.084-1.192-2.352-1.192-3.99V5.587h3.41v5.382c0 1.576.43 2.393 1.787 2.393s1.787-.817 1.787-2.393V5.588h3.493v5.156M130.726 12.234a6.534 6.534 0 0 0 3.94 1.371c.984 0 1.498-.299 1.498-.814 0-.814-.894-.814-2.35-1.151-2.282-.534-3.333-1.429-3.333-2.916 0-1.786 1.588-3.136 4.475-3.136 1.454 0 2.885.298 4.408.894l-.807 2.381c-1.073-.655-2.147-.953-3.176-.953-.896 0-1.344.259-1.344.714 0 .675.986.715 2.529 1.132 2.105.554 3.135 1.388 3.135 2.956 0 1.965-1.814 3.354-4.745 3.354-1.903 0-3.535-.378-5.034-1.19l.804-2.642M87.222 6.869l-8.095.02.01 3.194 4.068-.012a4.418 4.418 0 0 1-3.913 2.388 4.427 4.427 0 0 1-.024-8.852 4.41 4.41 0 0 1 3.492 1.699l3.265-1.625A8.024 8.024 0 0 0 79.26 0a8.034 8.034 0 1 0 8.053 8.013 8.613 8.613 0 0 0-.09-1.144"></path></g></svg>